<?xml version="1.0" encoding="UTF-8" ?>
<!DOCTYPE svg PUBLIC "-//W3C//DTD SVG 1.1//EN" "http://www.w3.org/Graphics/SVG/1.1/DTD/svg11.dtd">
<svg width="162pt" height="69pt" viewBox="0 0 162 69" version="1.1" xmlns="http://www.w3.org/2000/svg">
<g id="#003986ff">
<path fill="#003986" opacity="1.00" d=" M 28.49 0.00 L 39.66 0.00 C 46.05 0.90 52.80 2.70 57.39 7.52 C 59.45 9.67 60.71 13.13 58.99 15.84 C 55.78 20.14 48.33 20.36 45.15 15.88 C 39.23 7.92 24.58 9.78 21.24 19.27 C 18.87 25.66 19.31 34.32 25.35 38.54 C 26.06 38.25 27.47 37.68 28.17 37.39 L 27.45 39.74 C 32.87 41.35 41.30 41.89 43.87 35.65 C 45.85 34.38 47.74 32.87 50.00 32.15 C 52.66 31.40 55.35 32.39 57.87 33.17 C 55.56 24.06 58.24 13.66 65.43 7.43 C 70.43 2.99 77.01 1.01 83.48 0.00 L 94.68 0.00 C 101.89 0.87 109.20 3.36 114.43 8.61 C 117.06 11.02 118.44 14.37 120.36 17.32 L 120.49 17.85 C 120.47 20.51 120.94 23.29 120.11 25.86 C 118.94 28.62 115.53 28.69 112.98 28.75 C 102.00 28.76 91.02 28.71 80.03 28.79 C 79.71 29.21 79.06 30.04 78.73 30.46 C 78.37 30.28 77.64 29.92 77.27 29.73 C 77.42 29.48 77.73 28.97 77.89 28.71 C 76.95 28.68 76.02 28.64 75.09 28.61 C 75.18 30.35 75.30 32.10 75.57 33.83 C 74.67 34.58 73.72 35.26 72.77 35.94 C 71.11 40.67 73.49 45.06 74.21 49.64 C 68.38 47.38 63.06 43.58 59.92 38.07 C 59.04 40.82 57.80 43.54 55.48 45.37 C 48.51 51.29 38.82 52.34 30.02 51.87 C 21.24 51.53 12.00 48.40 6.59 41.13 C 5.92 41.02 4.58 40.82 3.91 40.72 C 4.29 40.36 5.03 39.65 5.41 39.29 C 0.22 29.32 1.68 15.82 9.98 7.95 C 14.96 3.14 21.80 1.02 28.49 0.00 M 74.50 20.28 C 84.42 20.28 94.35 20.32 104.27 20.25 C 103.21 17.67 102.11 14.94 99.81 13.20 C 91.78 6.68 77.41 9.77 74.50 20.28 Z" />
<path fill="#003986" opacity="1.00" d=" M 107.32 33.87 L 107.95 33.82 C 109.70 34.14 109.20 37.08 107.38 36.32 C 106.24 35.53 106.22 34.71 107.32 33.87 Z" />
<path fill="#003986" opacity="1.00" d=" M 110.29 33.66 C 113.31 34.58 117.24 36.17 117.14 39.96 C 116.58 44.96 111.45 47.27 107.44 49.15 C 108.00 45.60 108.06 42.02 108.10 38.44 C 109.19 37.94 110.29 37.48 111.40 37.04 C 111.04 35.91 110.67 34.78 110.29 33.66 Z" />
<path fill="#003986" opacity="1.00" d=" M 94.75 40.68 C 97.12 39.75 99.52 38.87 101.84 37.80 C 102.18 38.32 102.87 39.36 103.21 39.87 C 102.78 43.46 102.46 47.07 102.23 50.68 C 99.31 51.15 96.39 51.59 93.46 51.97 C 93.09 50.65 92.81 49.31 92.52 47.97 C 93.08 47.64 94.20 47.00 94.76 46.68 C 94.76 44.68 94.76 42.68 94.75 40.68 Z" />
<path fill="#003986" opacity="1.00" d=" M 81.07 38.92 C 82.12 39.38 83.17 39.83 84.23 40.27 C 85.99 40.89 87.39 42.13 88.11 43.88 C 89.23 46.40 91.36 49.06 90.27 51.96 C 87.72 51.87 85.17 51.78 82.62 51.71 C 82.71 48.70 82.13 45.73 80.54 43.14 C 80.74 41.74 80.92 40.33 81.07 38.92 Z" />
<path fill="#003986" opacity="1.00" d=" M 1.57 61.97 C 4.75 60.91 8.19 60.77 11.41 61.77 C 12.32 61.50 13.24 61.23 14.15 60.96 C 14.23 61.72 14.37 63.24 14.45 64.00 C 15.50 64.01 16.55 64.02 17.60 64.03 C 17.69 63.23 17.86 61.63 17.95 60.83 C 21.88 61.26 19.69 66.34 20.14 69.00 L 17.80 69.00 C 17.77 68.25 17.72 66.74 17.69 65.99 C 16.59 65.97 15.48 65.96 14.38 65.95 C 14.35 66.71 14.29 68.24 14.26 69.00 L 11.81 69.00 C 11.79 66.70 11.83 64.40 11.90 62.10 C 10.94 62.45 9.03 63.14 8.07 63.49 C 8.10 65.33 8.12 67.16 8.14 69.00 L 5.58 69.00 C 5.56 67.17 5.56 65.35 5.55 63.52 C 4.22 63.02 2.89 62.51 1.57 61.97 Z" />
<path fill="#003986" opacity="1.00" d=" M 24.30 61.23 C 28.28 60.56 28.28 66.47 29.72 69.00 L 27.14 69.00 C 27.81 66.25 22.95 66.50 22.75 69.00 L 20.66 69.00 C 21.80 66.38 22.51 63.51 24.30 61.23 M 25.27 64.17 C 23.95 64.88 23.94 65.56 25.24 66.23 C 26.52 65.53 26.53 64.84 25.27 64.17 Z" />
<path fill="#003986" opacity="1.00" d=" M 30.72 60.42 C 33.73 61.31 32.57 64.68 32.88 66.99 C 34.76 67.09 36.84 67.04 37.82 69.00 L 30.53 69.00 C 30.04 66.16 30.02 63.23 30.72 60.42 Z" />
<path fill="#003986" opacity="1.00" d=" M 46.21 63.14 C 47.85 59.98 53.29 60.30 54.47 63.76 C 52.43 63.39 50.38 63.11 48.33 62.91 C 50.60 64.06 53.34 64.59 54.90 66.82 C 54.39 67.36 53.37 68.45 52.86 69.00 L 47.94 69.00 C 47.42 68.31 46.39 66.92 45.88 66.22 C 47.96 66.69 50.25 68.20 52.30 66.79 C 50.33 65.75 46.33 66.08 46.21 63.14 Z" />
<path fill="#003986" opacity="1.00" d=" M 69.67 69.00 C 70.10 66.51 67.88 61.02 71.91 61.14 C 74.18 60.90 77.48 61.06 77.85 63.97 C 77.17 66.47 74.39 66.28 72.35 66.63 C 72.19 67.23 71.87 68.41 71.71 69.00 L 69.67 69.00 M 72.09 63.18 C 70.93 64.82 74.01 65.55 74.91 64.49 C 76.19 62.87 72.97 61.98 72.09 63.18 Z" />
<path fill="#003986" opacity="1.00" d=" M 79.24 61.36 C 81.66 61.28 85.20 60.06 86.65 62.71 C 84.58 62.93 82.52 63.10 80.46 63.36 C 82.45 64.01 84.50 64.47 86.52 65.03 C 84.56 65.76 82.50 66.07 80.46 66.46 C 82.49 67.65 85.72 66.42 86.74 69.00 L 78.82 69.00 C 78.77 66.49 78.03 63.68 79.24 61.36 Z" />
<path fill="#003986" opacity="1.00" d=" M 86.24 64.08 C 87.32 60.33 94.48 59.54 94.53 64.06 C 92.69 63.39 90.76 62.94 88.79 63.13 C 90.73 63.89 92.78 64.40 94.63 65.40 C 95.30 66.68 94.40 67.87 93.89 69.00 L 88.54 69.00 C 87.98 68.39 86.87 67.16 86.31 66.55 C 88.47 66.13 90.81 68.57 92.64 66.71 C 90.43 66.04 88.19 65.36 86.24 64.08 Z" />
<path fill="#003986" opacity="1.00" d=" M 95.01 64.11 C 96.17 60.26 102.95 59.62 103.52 64.06 C 101.63 63.35 99.62 62.94 97.61 63.24 C 99.58 64.43 103.75 64.00 103.75 67.09 C 103.34 67.57 102.50 68.52 102.09 69.00 L 97.11 69.00 C 96.62 68.31 95.66 66.94 95.17 66.26 C 97.18 66.38 99.66 68.63 101.37 66.65 C 99.17 66.04 96.97 65.33 95.01 64.11 Z" />
<path fill="#003986" opacity="1.00" d=" M 107.22 60.82 C 111.26 61.17 111.38 66.11 112.80 69.00 L 110.41 69.00 C 110.35 66.23 106.17 66.43 105.88 69.00 L 103.62 69.00 C 104.85 66.29 105.98 63.53 107.22 60.82 M 108.32 64.14 C 107.00 64.85 106.98 65.54 108.27 66.22 C 109.55 65.51 109.56 64.82 108.32 64.14 Z" />
<path fill="#003986" opacity="1.00" d=" M 112.79 65.01 C 112.64 60.21 121.37 59.33 121.62 64.43 C 120.08 63.92 118.60 63.00 116.93 63.02 C 115.15 63.26 114.57 66.15 116.20 66.96 C 117.75 68.48 120.57 64.64 121.57 67.03 C 121.13 67.52 120.24 68.51 119.80 69.00 L 115.03 69.00 C 113.90 67.93 112.52 66.76 112.79 65.01 Z" />
<path fill="#003986" opacity="1.00" d=" M 37.97 61.44 C 40.47 61.23 42.98 61.13 45.49 61.11 L 45.55 63.09 C 44.30 62.97 41.79 62.74 40.54 62.62 C 40.54 63.18 40.56 63.74 40.58 64.31 C 42.24 64.50 44.74 63.37 45.38 65.63 C 43.51 65.91 41.65 66.17 39.79 66.49 C 41.84 67.42 45.08 66.54 46.03 69.00 L 38.33 69.00 C 38.11 66.49 38.05 63.96 37.97 61.44 Z" />
<path fill="#003986" opacity="1.00" d=" M 60.27 63.49 C 62.15 61.79 65.85 64.57 63.71 66.55 C 61.76 68.93 57.18 65.37 60.27 63.49 Z" />
</g>
<g id="#48beccfe">
<path fill="#48becc" opacity="1.00" d=" M 149.05 5.03 C 153.18 3.35 157.48 2.12 162.00 2.28 L 162.00 2.56 C 157.61 4.90 152.90 6.83 149.32 10.41 C 149.66 10.59 150.35 10.97 150.69 11.15 C 149.13 11.90 147.58 12.66 146.03 13.42 C 145.28 12.57 144.54 11.73 143.80 10.89 C 143.17 10.97 141.91 11.15 141.28 11.23 C 139.97 9.88 138.61 8.58 137.24 7.29 C 141.01 5.71 144.97 5.02 149.05 5.03 Z" />
<path fill="#48becc" opacity="1.00" d=" M 134.72 12.25 C 135.64 10.83 136.54 10.78 137.41 12.09 C 136.49 13.51 135.59 13.57 134.72 12.25 Z" />
<path fill="#48becc" opacity="1.00" d=" M 122.61 16.96 C 122.61 15.77 124.82 14.78 125.37 16.07 C 125.34 17.25 123.16 18.22 122.61 16.96 Z" />
<path fill="#48becc" opacity="1.00" d=" M 120.36 17.32 L 120.48 17.49 C 120.49 17.58 120.49 17.76 120.49 17.85 L 120.36 17.32 Z" />
<path fill="#48becc" opacity="1.00" d=" M 34.30 37.18 C 34.53 35.81 37.13 35.66 37.33 37.13 C 37.15 38.62 34.44 38.74 34.30 37.18 Z" />
<path fill="#48becc" opacity="1.00" d=" M 39.20 36.03 C 40.03 34.68 42.68 35.86 41.38 37.28 C 40.56 38.49 37.98 37.43 39.20 36.03 Z" />
<path fill="#48becc" opacity="1.00" d=" M 30.31 37.14 C 31.17 35.69 34.13 37.00 32.74 38.53 C 31.85 39.97 29.15 38.67 30.31 37.14 Z" />
<path fill="#48becc" opacity="1.00" d=" M 0.00 39.83 C 0.47 39.77 1.41 39.65 1.88 39.59 C 4.10 40.64 1.34 42.38 0.00 41.51 L 0.00 39.83 Z" />
</g>
<g id="#96bf0dff">
<path fill="#96bf0d" opacity="1.00" d=" M 77.27 29.73 C 77.64 29.92 78.37 30.28 78.73 30.46 C 79.30 30.73 80.44 31.25 81.00 31.51 C 80.39 32.50 79.77 33.49 79.16 34.48 C 79.53 34.70 80.29 35.16 80.66 35.38 C 80.82 36.56 80.95 37.74 81.07 38.92 C 80.92 40.33 80.74 41.74 80.54 43.14 C 82.13 45.73 82.71 48.70 82.62 51.71 C 82.65 52.24 82.73 53.31 82.76 53.85 C 83.48 54.30 84.91 55.21 85.63 55.67 C 84.02 56.38 82.30 56.04 80.65 55.71 C 80.56 54.01 80.44 52.31 80.32 50.61 C 79.40 50.59 77.55 50.56 76.63 50.54 C 77.16 52.81 77.92 55.02 79.19 56.97 C 78.48 56.95 77.07 56.89 76.36 56.87 C 75.57 54.48 74.49 52.16 74.21 49.64 C 73.49 45.06 71.11 40.67 72.77 35.94 C 73.72 35.26 74.67 34.58 75.57 33.83 C 75.63 33.08 75.76 31.58 75.82 30.83 C 76.18 30.55 76.91 30.01 77.27 29.73 Z" />
<path fill="#96bf0d" opacity="1.00" d=" M 107.32 33.87 C 107.48 33.85 107.79 33.83 107.95 33.82 L 107.32 33.87 Z" />
</g>
<g id="#e20076ff">
<path fill="#e20076" opacity="1.00" d=" M 90.50 31.43 C 92.03 30.40 93.20 32.11 94.40 32.84 C 94.00 33.26 93.19 34.10 92.79 34.52 C 93.97 35.77 95.03 37.12 95.96 38.57 C 94.76 38.56 93.56 38.40 92.37 38.25 C 92.94 39.32 93.73 40.12 94.75 40.68 C 94.76 42.68 94.76 44.68 94.76 46.68 C 94.20 47.00 93.08 47.64 92.52 47.97 C 92.81 49.31 93.09 50.65 93.46 51.97 C 93.84 53.85 95.85 56.63 92.93 57.44 C 92.72 55.63 92.47 53.80 91.52 52.21 C 91.42 53.29 91.22 55.46 91.12 56.54 C 88.12 56.40 90.12 53.48 90.27 51.96 C 91.36 49.06 89.23 46.40 88.11 43.88 C 87.39 42.13 85.99 40.89 84.23 40.27 C 84.46 40.22 84.91 40.14 85.14 40.10 C 85.98 37.84 86.90 35.39 89.44 34.62 C 89.66 33.51 90.01 32.45 90.50 31.43 Z" />
</g>
<g id="#f8aa11ff">
<path fill="#f8aa11" opacity="1.00" d=" M 102.63 31.85 C 104.55 30.03 107.30 31.33 109.38 32.13 C 109.60 32.51 110.06 33.27 110.29 33.66 C 110.67 34.78 111.04 35.91 111.40 37.04 C 110.29 37.48 109.19 37.94 108.10 38.44 C 108.06 42.02 108.00 45.60 107.44 49.15 C 107.27 50.64 107.13 52.14 106.97 53.64 C 107.59 53.96 108.82 54.59 109.44 54.91 C 107.24 56.44 104.88 57.31 102.42 55.77 C 102.32 54.08 102.22 52.38 102.23 50.68 C 102.46 47.07 102.78 43.46 103.21 39.87 C 102.87 39.36 102.18 38.32 101.84 37.80 C 101.52 37.34 100.88 36.41 100.57 35.94 C 101.46 35.37 102.35 34.81 103.25 34.24 C 103.09 33.64 102.78 32.44 102.63 31.85 M 107.32 33.87 C 106.22 34.71 106.24 35.53 107.38 36.32 C 109.20 37.08 109.70 34.14 107.95 33.82 C 107.79 33.83 107.48 33.85 107.32 33.87 Z" />
</g>
</svg>
